<?xml version="1.0" standalone="no"?>
<!DOCTYPE svg PUBLIC "-//W3C//DTD SVG 20010904//EN"
 "http://www.w3.org/TR/2001/REC-SVG-20010904/DTD/svg10.dtd">
<svg version="1.0" xmlns="http://www.w3.org/2000/svg"
 width="600.000000pt" height="600.000000pt" viewBox="0 0 600.000000 600.000000"
 preserveAspectRatio="xMidYMid meet">

<g transform="translate(0.000000,600.000000) scale(0.100000,-0.100000)"
fill="#000000" stroke="none">
<path d="M5320 5684 c-33 -14 -69 -49 -70 -67 0 -4 9 -3 19 3 31 16 93 12 128
-10 61 -37 81 -116 43 -177 -26 -44 -58 -63 -119 -70 -76 -9 -81 -19 -81 -188
0 -96 4 -145 12 -153 13 -13 192 -17 222 -6 14 5 16 41 16 298 0 270 -1 293
-20 323 -32 53 -93 72 -150 47z"/>
<path d="M3008 5660 l-28 -28 0 -146 c0 -91 4 -146 10 -146 6 0 10 9 10 20 0
17 7 20 41 20 32 0 42 -4 46 -20 14 -52 23 -7 25 127 2 100 7 148 15 150 6 2
14 -5 18 -16 3 -12 11 -21 17 -21 6 0 7 7 3 18 -21 50 -20 54 21 50 31 -2 43
-9 59 -35 11 -18 24 -32 28 -33 15 0 -4 45 -28 66 -20 19 -35 22 -116 22 -88
0 -94 -2 -121 -28z m97 -7 c-4 -10 -10 -30 -13 -45 -4 -26 -8 -28 -48 -28 -40
0 -44 2 -44 25 0 37 33 65 76 65 31 0 35 -3 29 -17z m-15 -113 c0 -17 -7 -20
-45 -20 -38 0 -45 3 -45 20 0 17 7 20 45 20 38 0 45 -3 45 -20z m-2 -62 c-3
-20 -9 -23 -43 -23 -34 0 -40 3 -43 23 -3 20 1 22 43 22 42 0 46 -2 43 -22z
m2 -63 c0 -23 -4 -25 -45 -25 -41 0 -45 2 -45 25 0 23 4 25 45 25 41 0 45 -2
45 -25z"/>
<path d="M1722 5457 l-174 -174 84 -17 83 -16 140 140 140 140 -50 50 -50 50
-173 -173z"/>
<path d="M3938 5619 c-10 -5 -20 -26 -24 -46 -5 -29 -3 -39 12 -50 15 -11 20
-31 24 -101 l5 -87 220 0 220 0 3 81 c2 66 7 85 22 99 27 24 25 67 -3 93 -22
21 -31 22 -243 22 -127 0 -226 -5 -236 -11z"/>
<path d="M5295 5589 c-40 -11 -65 -46 -65 -92 0 -92 120 -132 177 -58 19 24
16 95 -4 120 -23 27 -70 40 -108 30z m60 -89 c4 -6 -7 -10 -24 -10 -17 0 -31
5 -31 10 0 6 11 10 24 10 14 0 28 -4 31 -10z"/>
<path d="M384 5532 c-7 -4 -14 -67 -19 -167 -6 -141 -5 -162 9 -174 29 -25 46
3 46 77 l0 65 77 -7 c42 -3 138 -6 214 -6 l138 0 3 -72 c3 -70 4 -73 28 -73
l25 0 8 160 c4 88 5 166 2 172 -2 7 -16 13 -29 13 -24 0 -25 -3 -28 -67 l-3
-67 -210 3 c-115 1 -213 5 -218 8 -4 2 -4 29 -1 58 8 66 -10 99 -42 77z"/>
<path d="M3852 5498 c-18 -18 -16 -172 3 -208 19 -36 58 -67 95 -75 34 -8 35
-11 16 -82 -21 -79 5 -69 33 12 l23 65 161 -2 160 -3 22 -60 c12 -32 28 -61
34 -63 14 -5 14 1 -4 68 -8 30 -11 56 -7 58 39 13 81 43 99 71 20 29 23 47 23
121 0 100 -12 122 -55 102 -24 -11 -25 -16 -25 -91 0 -75 -2 -81 -27 -101 -26
-20 -36 -21 -234 -18 -254 4 -249 1 -249 118 0 77 -9 100 -40 100 -9 0 -21 -5
-28 -12z"/>
<path d="M306 5468 c-3 -13 -6 -69 -6 -124 0 -80 3 -103 15 -107 8 -4 16 -3
19 1 2 4 5 61 7 127 4 104 2 120 -12 123 -10 2 -19 -6 -23 -20z"/>
<path d="M1866 5351 l-138 -138 -61 13 c-94 20 -95 18 -37 -41 30 -30 59 -55
64 -55 6 0 43 32 83 72 l73 72 48 -47 c47 -47 48 -47 114 -47 l67 0 3 -47 c3
-41 6 -48 26 -51 22 -3 22 -2 22 123 0 125 0 126 -22 123 -20 -3 -23 -10 -26
-50 l-3 -48 -63 0 c-59 0 -65 2 -94 35 -18 19 -32 38 -32 42 0 4 32 39 70 78
51 51 69 76 64 88 -3 9 -9 17 -13 17 -3 0 -69 -62 -145 -139z"/>
<path d="M936 5409 c-3 -34 -6 -91 -6 -125 0 -56 2 -64 19 -64 15 0 19 11 24
68 4 37 7 93 7 125 0 49 -3 57 -19 57 -15 0 -19 -11 -25 -61z"/>
<path d="M257 5443 c-4 -3 -7 -42 -7 -85 0 -63 3 -78 15 -78 12 0 15 16 15 85
0 78 -5 96 -23 78z"/>
<path d="M1006 5423 c-9 -10 -7 -163 3 -163 18 0 30 154 12 164 -4 3 -11 3
-15 -1z"/>
<path d="M2722 5285 c-33 -28 -52 -31 -70 -13 -17 17 -28 2 -12 -17 19 -23 63
-18 90 10 13 14 32 25 43 25 10 0 32 -11 49 -25 18 -15 42 -25 62 -25 19 0 46
10 66 25 43 32 74 32 116 0 54 -41 88 -43 139 -6 48 34 81 39 125 16 25 -13
30 -13 30 -2 0 8 -11 19 -25 25 -43 20 -87 14 -134 -18 -55 -37 -68 -37 -117
0 -50 38 -97 39 -144 5 -19 -14 -44 -25 -56 -25 -12 0 -36 11 -52 25 -17 14
-41 25 -55 25 -14 0 -39 -11 -55 -25z"/>
<path d="M1537 5202 c-16 -17 -14 -21 33 -67 42 -41 51 -46 65 -35 8 7 15 18
15 25 0 10 -82 95 -93 95 -2 0 -11 -8 -20 -18z"/>
<path d="M2727 5180 c-37 -32 -56 -37 -75 -18 -6 6 -15 8 -19 4 -10 -10 25
-36 48 -36 10 0 31 11 47 25 17 14 37 25 45 25 9 0 33 -11 53 -25 20 -14 47
-25 59 -25 12 0 39 11 59 25 47 32 80 32 129 -2 51 -36 95 -35 137 1 28 23 41
27 74 24 23 -3 49 -8 60 -13 14 -6 18 -5 14 6 -2 8 -22 20 -43 27 -44 15 -91
4 -120 -28 -25 -28 -72 -25 -118 7 -23 16 -52 27 -72 27 -21 0 -44 -10 -64
-27 -41 -34 -66 -34 -115 3 -22 17 -45 30 -52 30 -8 0 -29 -13 -47 -30z"/>
<path d="M2734 5079 c-30 -33 -51 -41 -75 -29 -28 15 -39 2 -15 -16 30 -21 52
-17 89 16 19 17 39 30 44 30 6 0 27 -13 48 -30 47 -38 66 -38 126 1 53 34 72
33 125 -7 41 -32 93 -32 131 0 41 34 76 41 114 22 38 -19 39 -19 39 -5 0 12
-61 39 -88 39 -11 0 -39 -13 -63 -30 -24 -16 -55 -30 -69 -30 -14 0 -45 14
-69 30 -24 17 -54 30 -66 30 -12 0 -42 -13 -66 -30 -24 -16 -49 -30 -55 -30
-6 0 -28 14 -49 30 -44 35 -75 38 -101 9z"/>
<path d="M5403 4558 c-90 -93 -115 -137 -93 -164 14 -16 4 -37 -13 -28 -7 4 1
-7 16 -23 19 -20 31 -46 34 -74 6 -39 5 -42 -13 -34 -10 5 -42 11 -71 13 -37
3 -53 8 -57 20 -3 12 -4 11 -3 -3 1 -12 -8 -34 -21 -49 -30 -39 -28 -53 13
-92 37 -35 43 -52 23 -72 -9 -9 -9 -15 0 -24 8 -8 9 -15 1 -25 -8 -9 -8 -17 0
-26 7 -10 7 -17 0 -24 -7 -7 -7 -17 -1 -29 5 -11 15 -32 23 -48 32 -67 59 -14
59 118 0 99 0 100 31 125 16 14 30 35 29 46 0 11 0 42 0 69 0 27 -8 64 -16 83
-17 34 -13 56 7 36 7 -7 22 -7 49 0 29 8 62 34 127 99 l87 88 -54 55 c-30 30
-57 55 -60 55 -4 0 -47 -42 -97 -92z m-33 -158 c0 -5 -4 -10 -9 -10 -6 0 -13
5 -16 10 -3 6 1 10 9 10 9 0 16 -4 16 -10z m-83 -191 l28 -12 -25 -7 -25 -8
27 -1 c31 -1 29 -24 -3 -41 -22 -12 -67 3 -75 25 -9 23 15 48 33 34 11 -10 12
-9 7 5 -7 19 -4 20 33 5z"/>
<path d="M1601 4497 c-61 -31 -80 -92 -81 -254 l0 -113 -37 0 c-21 0 -44 -4
-52 -9 -23 -14 -5 -41 27 -41 27 0 30 -3 36 -46 8 -64 34 -112 68 -130 28 -14
29 -17 14 -33 -20 -22 -20 -31 -2 -31 8 0 23 11 34 25 l20 25 197 0 197 0 20
-25 c11 -14 26 -25 34 -25 18 0 18 9 -2 31 -15 16 -14 19 15 33 38 20 58 57
67 124 6 49 8 52 36 52 32 0 50 27 27 41 -8 5 -164 9 -346 9 l-333 0 0 128 c1
184 28 237 122 230 46 -3 75 -33 80 -82 2 -24 -2 -31 -22 -37 -17 -5 -6 -7 35
-7 40 0 52 2 35 7 -19 5 -26 15 -31 46 -12 75 -92 116 -158 82z"/>
<path d="M4002 4498 c-8 -8 -12 -62 -12 -175 l0 -163 -35 0 -35 0 0 -160 0
-160 254 0 255 0 3 128 c4 184 3 192 -33 192 l-29 0 0 163 c0 113 -4 167 -12
175 -17 17 -339 17 -356 0z m348 -173 l0 -165 -170 0 -170 0 0 165 0 165 170
0 170 0 0 -165z m-367 -214 c18 -22 28 -51 36 -111 7 -45 11 -84 9 -86 -3 -2
-15 37 -27 86 -13 50 -32 96 -42 106 -11 9 -19 21 -19 26 0 16 19 7 43 -21z
m437 22 c0 -4 -9 -16 -19 -27 -10 -12 -30 -61 -44 -111 -28 -100 -34 -89 -13
23 9 49 22 82 37 98 22 23 39 31 39 17z m-162 -52 c5 -32 -12 -41 -80 -41 -66
0 -95 19 -77 51 9 17 19 19 82 17 67 -3 72 -5 75 -27z"/>
<path d="M2659 4476 c-13 -27 -4 -96 12 -96 5 0 14 12 19 26 6 14 16 24 23 21
9 -3 13 -69 15 -274 3 -335 -13 -308 183 -308 119 0 141 2 156 18 16 16 19 46
23 289 3 189 8 272 16 275 7 2 15 -8 18 -22 10 -41 31 -23 34 30 4 58 -12 80
-29 42 -15 -34 -29 -34 -59 -2 -23 24 -27 25 -162 25 -136 0 -139 -1 -165 -26
-26 -26 -53 -26 -53 0 0 26 -20 28 -31 2z m399 -8 c9 -9 12 -87 12 -292 0
-246 -2 -282 -17 -298 -14 -16 -33 -18 -143 -18 -93 0 -131 4 -146 14 -18 14
-19 29 -19 294 0 222 3 282 14 295 11 14 35 17 150 17 93 0 141 -4 149 -12z"/>
<path d="M265 4434 c-11 -11 -15 -30 -13 -56 l3 -39 155 0 c85 0 190 0 233 1
l77 0 0 33 c0 18 -7 43 -16 55 -15 22 -20 22 -219 22 -174 0 -206 -2 -220 -16z
m329 -27 c8 -13 7 -20 -4 -27 -8 -5 -19 -10 -23 -10 -12 0 -20 28 -13 46 7 19
25 15 40 -9z m84 -11 c-2 -13 -10 -21 -23 -21 -23 0 -33 34 -14 45 20 13 40
-1 37 -24z m-258 4 c0 -18 -7 -20 -59 -20 -37 0 -63 5 -70 13 -17 21 -3 27 66
27 56 0 63 -2 63 -20z"/>
<path d="M5248 4373 c6 -2 18 -2 25 0 6 3 1 5 -13 5 -14 0 -19 -2 -12 -5z"/>
<path d="M5210 4355 c-6 -8 -10 -19 -8 -24 1 -6 8 1 15 14 13 28 11 31 -7 10z"/>
<path d="M250 4086 c0 -191 2 -227 16 -240 13 -14 47 -16 215 -16 184 0 200 1
219 20 18 18 19 34 20 240 l0 220 -235 0 -235 0 0 -224z m303 160 c35 -14 97
-78 97 -100 0 -7 9 -21 20 -31 25 -22 26 -50 2 -67 -10 -7 -24 -27 -31 -45
-16 -39 -46 -68 -93 -88 -68 -28 -136 -13 -191 41 -138 138 16 366 196 290z"/>
<path d="M411 4164 c-75 -63 -28 -194 71 -194 33 0 87 36 98 66 19 49 12 84
-24 120 -44 44 -99 47 -145 8z m140 -13 c39 -40 39 -63 0 -48 -24 9 -34 7 -63
-11 -40 -25 -96 -29 -104 -8 -3 8 0 25 6 38 34 64 111 78 161 29z"/>
<path d="M3180 4265 c-6 -8 -9 -23 -5 -34 3 -10 1 -22 -5 -26 -5 -3 -10 -40
-10 -81 0 -67 -2 -74 -20 -74 -11 0 -20 -4 -20 -10 0 -6 58 -10 155 -10 97 0
155 4 155 10 0 6 -7 10 -15 10 -12 0 -15 14 -15 68 0 39 -5 73 -12 80 -6 6
-12 26 -12 44 -1 27 -6 34 -24 36 -34 5 -54 -16 -47 -50 4 -17 2 -28 -4 -28
-7 0 -11 -28 -11 -75 0 -60 -3 -75 -15 -75 -12 0 -15 15 -15 74 0 41 -5 78
-10 81 -6 4 -8 11 -4 16 3 6 3 21 0 35 -7 28 -46 33 -66 9z m53 -116 c8 -31
-3 -50 -27 -47 -16 2 -22 11 -24 36 -3 28 0 32 21 32 17 0 26 -7 30 -21z m135
-11 c-2 -28 -7 -33 -28 -33 -21 0 -26 5 -28 33 -3 30 -1 32 28 32 29 0 31 -2
28 -32z"/>
<path d="M870 4246 c0 -23 19 -30 95 -36 56 -4 70 -8 73 -22 3 -16 -5 -18 -58
-18 -33 0 -77 -7 -98 -16 -36 -15 -102 -70 -102 -86 0 -4 77 -8 170 -8 193 0
180 -8 154 96 -23 90 -43 104 -150 104 -67 0 -84 -3 -84 -14z m125 -145 c7
-12 -12 -24 -25 -16 -11 7 -4 25 10 25 5 0 11 -4 15 -9z m45 -6 c0 -8 -7 -15
-15 -15 -8 0 -15 7 -15 15 0 8 7 15 15 15 8 0 15 -7 15 -15z m45 5 c3 -6 -1
-13 -10 -16 -19 -8 -30 0 -20 15 8 14 22 14 30 1z"/>
<path d="M852 4033 c48 -2 129 -2 180 0 51 1 12 3 -87 3 -99 0 -141 -2 -93 -3z"/>
<path d="M2859 3330 c-11 -36 -9 -44 16 -94 27 -53 27 -56 11 -81 -23 -34 -10
-47 15 -16 25 30 24 58 -2 101 -17 27 -20 44 -16 82 7 58 -8 63 -24 8z"/>
<path d="M2971 3351 c-17 -32 -13 -93 9 -121 24 -30 25 -50 5 -76 -18 -23 -19
-34 -4 -34 39 0 50 78 19 125 -22 33 -25 66 -10 95 6 12 7 21 1 25 -6 3 -15
-3 -20 -14z"/>
<path d="M3070 3351 c-16 -31 -12 -81 11 -118 20 -32 21 -55 4 -95 -14 -34 15
-18 32 16 15 33 15 36 -12 81 -26 46 -28 69 -10 118 10 23 -12 22 -25 -2z"/>
<path d="M3936 3361 c5 -6 34 -11 64 -13 54 -3 55 -4 77 -48 35 -71 33 -73
-47 -68 l-69 5 66 -81 c37 -44 82 -99 100 -120 l33 -40 0 -128 0 -128 -32 0
c-43 0 -108 -18 -108 -30 0 -42 243 -54 296 -15 26 18 16 24 -55 38 l-61 12 0
128 0 129 63 79 c44 56 66 77 77 72 8 -3 33 -8 56 -11 35 -3 45 0 72 28 83 82
-14 219 -117 166 -31 -16 -61 -61 -61 -91 0 -13 -12 -15 -82 -13 l-82 3 -24
60 c-13 33 -29 63 -35 67 -18 12 -143 10 -131 -1z m500 -45 c19 -15 18 -16 -8
-43 l-28 -28 0 43 c0 45 6 50 36 28z m-61 -46 c22 -23 38 -30 67 -30 38 0 43
-5 32 -34 -8 -22 -23 -20 -51 6 l-23 21 0 -36 c0 -30 -4 -37 -19 -37 -31 0
-35 19 -12 51 l22 29 -41 0 c-41 0 -47 8 -30 41 14 26 21 24 55 -11z m-71 -76
c6 -21 -4 -38 -60 -105 -54 -65 -69 -78 -79 -67 -34 37 -155 188 -155 192 0 3
65 6 144 6 l144 0 6 -26z"/>
<path d="M4205 3190 c-3 -5 1 -10 9 -10 9 0 16 5 16 10 0 6 -4 10 -9 10 -6 0
-13 -4 -16 -10z"/>
<path d="M4104 3179 c-10 -17 23 -46 37 -32 7 7 9 19 6 27 -7 18 -33 21 -43 5z"/>
<path d="M4187 3134 c-8 -8 1 -24 14 -24 5 0 9 7 9 15 0 15 -12 20 -23 9z"/>
<path d="M5230 3335 c-6 -8 -9 -19 -5 -25 6 -10 -142 -222 -173 -247 -14 -11
-13 -27 7 -145 23 -134 45 -189 81 -208 11 -6 107 -10 222 -10 223 0 233 2
263 60 8 16 26 87 39 157 l24 128 -23 25 c-60 66 -166 221 -163 237 6 38 -9
43 -136 43 -96 0 -126 -3 -136 -15z m308 -156 c46 -61 82 -113 79 -115 -2 -2
-119 -3 -259 -2 l-256 3 82 112 81 112 95 1 95 0 83 -111z m-355 -176 c7 -38
-2 -45 -54 -41 -42 3 -44 5 -47 36 l-3 32 49 0 c46 0 50 -2 55 -27z m162 -8
c0 -28 -3 -30 -39 -33 -58 -5 -83 4 -88 33 -3 13 -3 27 1 30 3 3 32 5 65 3 59
-3 60 -3 61 -33z m165 19 c0 -40 -19 -54 -75 -54 l-55 0 0 35 0 35 65 0 c52 0
65 -3 65 -16z m140 7 c0 -5 -4 -21 -10 -35 -8 -23 -15 -26 -55 -26 -45 0 -45
0 -45 35 l0 35 55 0 c30 0 55 -4 55 -9z m-452 -126 l3 -35 -51 0 c-43 0 -50 3
-50 19 0 11 -3 26 -6 35 -5 13 3 16 48 16 l54 0 2 -35z m150 0 l-1 -35 -53 0
c-54 0 -64 8 -64 51 0 17 8 19 60 19 l59 0 -1 -35z m142 0 l0 -35 -55 0 -55 0
0 35 0 35 55 0 55 0 0 -35z m140 23 c-1 -48 -12 -58 -61 -58 -51 0 -54 4 -43
48 6 19 13 22 55 22 33 0 49 -4 49 -12z m-294 -98 c7 0 11 -17 10 -42 l-1 -43
-45 0 -45 0 -3 42 c-3 44 10 56 53 47 11 -2 25 -4 31 -4z m-122 -22 c3 -13 6
-33 6 -45 0 -50 -89 -11 -105 45 -6 21 -3 22 43 22 43 0 50 -3 56 -22z m262
-9 c-3 -17 -6 -38 -6 -45 0 -10 -13 -14 -45 -14 l-45 0 0 45 0 45 51 0 52 0
-7 -31z m134 17 c0 -29 -50 -76 -82 -76 -27 0 -30 3 -24 23 3 12 6 32 6 45 0
20 5 22 50 22 37 0 50 -4 50 -14z"/>
<path d="M913 3288 c-12 -6 -27 -23 -34 -39 -17 -42 -7 -125 19 -152 20 -21
22 -36 24 -182 3 -134 5 -160 18 -160 13 0 15 26 18 168 1 97 6 167 12 167 5
0 17 14 26 32 25 47 14 125 -20 155 -30 26 -32 26 -63 11z"/>
<path d="M290 3214 c0 -74 10 -109 36 -129 10 -7 14 -52 16 -170 3 -134 5
-160 18 -160 13 0 15 26 18 160 2 118 6 163 16 170 7 6 18 20 24 32 15 27 16
173 2 173 -6 0 -10 -30 -10 -70 0 -40 -4 -70 -10 -70 -11 0 -12 6 -10 76 1 29
-3 55 -9 59 -8 4 -11 -17 -11 -64 0 -41 -4 -71 -10 -71 -6 0 -10 30 -10 70 0
40 -4 70 -10 70 -6 0 -10 -30 -10 -70 0 -40 -4 -70 -10 -70 -6 0 -10 30 -10
70 0 40 -4 70 -10 70 -6 0 -10 -32 -10 -76z"/>
<path d="M1767 3254 c-10 -11 3 -24 24 -24 38 0 18 -19 -33 -29 -146 -32 -258
-152 -281 -303 l-6 -38 351 0 351 0 -6 49 c-17 145 -143 270 -299 296 -43 7
-52 25 -13 25 16 0 25 6 25 15 0 11 -13 15 -53 15 -30 0 -57 -3 -60 -6z m-54
-123 c-55 -40 -99 -96 -120 -153 -12 -34 -22 -48 -36 -48 -20 0 -19 11 8 77
17 40 83 106 132 132 55 29 62 25 16 -8z m-144 -247 c-9 -11 -15 -12 -25 -3
-11 9 -12 15 -3 25 9 11 15 12 25 3 11 -9 12 -15 3 -25z"/>
<path d="M548 3180 c-170 -90 -149 -340 35 -409 68 -26 182 4 234 60 56 61 72
173 34 246 -22 44 -79 99 -118 114 -43 16 -145 10 -185 -11z m162 -95 c41 -21
64 -68 57 -117 -13 -98 -127 -137 -196 -67 -35 35 -45 80 -27 123 28 68 101
95 166 61z"/>
<path d="M2780 2941 c0 -147 0 -149 26 -175 27 -26 27 -26 184 -26 153 0 158
1 184 25 14 13 26 30 26 38 0 9 15 16 41 20 80 11 126 88 95 161 -16 38 -43
57 -96 66 -26 4 -34 10 -32 23 3 16 -15 17 -213 17 l-215 0 0 -149z m510 42
c38 -48 4 -123 -56 -123 -23 0 -24 3 -24 75 l0 75 29 0 c20 0 36 -9 51 -27z"/>
<path d="M1419 2824 c-11 -14 -10 -18 6 -30 15 -11 90 -14 396 -14 208 0 384
3 393 6 21 8 21 40 0 48 -9 3 -188 6 -399 6 -339 0 -384 -2 -396 -16z"/>
<path d="M2705 2753 c-16 -16 -16 -17 1 -30 36 -26 91 -35 249 -40 172 -5 293
11 325 42 14 15 13 18 -4 31 -28 20 -50 18 -72 -7 -35 -39 -76 -49 -206 -49
-140 0 -184 9 -218 45 -27 29 -52 32 -75 8z"/>
<path d="M1739 2177 c-86 -32 -150 -96 -177 -176 -17 -48 -15 -129 4 -183 65
-193 334 -243 469 -86 47 55 68 124 63 201 -7 103 -59 182 -151 228 -52 27
-157 35 -208 16z m200 -31 c92 -47 144 -130 144 -231 1 -149 -112 -260 -264
-259 -246 1 -346 318 -147 467 46 34 83 45 156 46 48 1 74 -5 111 -23z"/>
<path d="M1672 2075 c-71 -81 -63 -132 26 -158 45 -14 47 -13 55 7 4 11 15 28
23 37 11 12 12 22 4 43 -5 15 -10 40 -10 56 0 75 -40 81 -98 15z"/>
<path d="M1858 2093 c-40 -46 -52 -113 -21 -113 9 0 24 -7 33 -15 13 -11 24
-13 51 -5 18 6 48 10 65 10 69 0 66 41 -8 104 -47 40 -95 48 -120 19z"/>
<path d="M1792 1954 c-41 -28 -16 -94 36 -94 21 0 52 34 52 57 0 17 -36 53
-53 53 -7 0 -23 -7 -35 -16z"/>
<path d="M1894 1895 c-3 -13 -12 -29 -19 -35 -10 -8 -11 -20 -4 -43 5 -18 9
-46 9 -63 0 -39 21 -59 47 -46 30 17 81 75 93 106 14 37 -7 72 -55 92 -48 20
-64 18 -71 -11z"/>
<path d="M1678 1861 c-64 -9 -76 -22 -53 -57 43 -65 111 -104 151 -85 25 11
54 64 54 99 0 18 -62 53 -91 51 -8 -1 -35 -5 -61 -8z"/>
<path d="M2788 2159 c-17 -9 -18 -36 -18 -337 0 -242 3 -331 12 -340 9 -9 71
-12 220 -12 195 0 208 1 218 19 6 13 10 137 10 335 0 273 -2 317 -16 330 -13
14 -46 16 -212 16 -115 0 -204 -5 -214 -11z m402 -344 l0 -315 -189 0 c-156 0
-190 3 -194 14 -8 19 -8 596 -1 607 3 5 90 9 195 9 l189 0 0 -315z"/>
<path d="M2840 2020 c0 -47 3 -60 15 -60 12 0 15 13 15 60 0 47 -3 60 -15 60
-12 0 -15 -13 -15 -60z"/>
<path d="M3001 1911 c-1 -8 -7 -11 -16 -7 -14 5 -14 4 0 -16 19 -28 19 -42 0
-34 -9 3 -18 -1 -22 -9 -8 -23 -33 1 -34 34 -1 17 -3 20 -6 8 -2 -9 -9 -14
-15 -10 -7 4 -9 0 -5 -10 4 -10 0 -17 -11 -20 -10 -3 -6 -5 10 -6 26 -1 52
-21 27 -21 -6 0 -9 -8 -6 -20 7 -25 -18 -27 -47 -2 -20 16 -20 16 -7 0 12 -16
11 -18 -5 -19 -18 0 -18 -1 0 -8 14 -5 16 -10 8 -15 -7 -4 -12 -12 -12 -18 0
-6 10 -2 23 10 27 26 49 29 40 6 -3 -9 0 -20 7 -24 19 -12 2 -30 -28 -31 -23
0 -24 -2 -8 -8 11 -4 23 -16 27 -27 6 -16 8 -15 8 8 1 30 19 47 31 28 4 -7 15
-10 24 -7 23 9 20 -13 -6 -40 -12 -13 -16 -23 -10 -23 6 0 14 5 18 11 4 8 9 7
15 -2 7 -12 9 -12 9 0 0 11 3 11 18 0 16 -13 16 -13 0 7 -22 25 -24 56 -4 48
8 -3 17 0 21 5 10 18 25 2 26 -27 1 -16 3 -20 6 -10 3 11 10 15 20 11 10 -4
14 -2 10 5 -4 6 1 13 10 15 12 3 9 5 -8 6 -33 1 -57 26 -34 34 8 4 12 13 9 22
-8 20 15 19 39 -2 11 -10 17 -12 12 -4 -4 8 -2 17 6 22 10 6 10 9 2 9 -8 0
-10 7 -6 18 6 16 5 16 -14 0 -21 -19 -48 -25 -38 -8 3 6 2 10 -4 10 -5 0 -13
-4 -16 -10 -9 -14 -37 -12 -33 2 3 7 13 15 24 18 18 5 19 6 3 22 -16 15 -18
15 -23 -8 -4 -13 -11 -24 -16 -24 -13 0 -13 27 0 35 6 3 10 11 10 16 0 6 -4 7
-10 4 -16 -10 -12 21 5 35 8 7 15 17 15 22 0 6 -6 6 -14 -1 -11 -9 -15 -9 -19
1 -4 10 -6 10 -6 -1z m-6 -100 c-10 -16 -25 -3 -25 22 0 20 1 20 16 5 9 -9 13
-21 9 -27z m-27 -19 c3 -9 -2 -13 -14 -10 -9 1 -19 9 -22 16 -3 9 2 13 14 10
9 -1 19 -9 22 -16z m2 -37 c0 -8 7 -15 15 -15 8 0 15 -4 15 -9 0 -5 -7 -14
-15 -21 -13 -10 -15 -9 -15 9 0 15 -6 21 -21 21 -18 0 -19 2 -9 15 7 8 16 15
21 15 5 0 9 -7 9 -15z m101 -1 c11 -14 10 -15 -11 -12 -13 1 -25 9 -28 16 -5
17 23 15 39 -4z m-33 -38 c3 -12 -1 -17 -10 -14 -7 3 -15 13 -16 22 -3 12 1
17 10 14 7 -3 15 -13 16 -22z"/>
<path d="M3069 1870 c-4 -35 -4 -35 31 -31 20 3 27 6 17 9 -11 2 -16 10 -13
17 3 9 0 12 -9 9 -7 -3 -15 2 -17 13 -3 10 -6 3 -9 -17z"/>
<path d="M4155 2137 c-3 -7 -4 -154 -3 -327 l3 -315 160 0 160 0 3 314 c2 223
-1 318 -9 327 -16 19 -307 20 -314 1z m225 -407 l0 -210 -70 0 -70 0 0 203 c0
112 3 207 7 210 3 4 35 7 70 7 l63 0 0 -210z"/>
<path d="M4276 1775 c-20 -21 -21 -49 0 -69 22 -22 57 -20 80 5 17 19 17 23 3
47 -17 32 -59 40 -83 17z m67 -3 c3 -4 -9 -7 -26 -7 -37 0 -50 -31 -21 -52 10
-7 13 -13 8 -13 -15 0 -34 22 -34 40 0 9 5 21 12 28 13 13 54 16 61 4z m2 -62
c-3 -5 -12 -10 -18 -10 -7 0 -6 4 3 10 19 12 23 12 15 0z"/>
<path d="M4284 1635 c-14 -37 26 -69 53 -42 22 22 8 57 -23 57 -14 0 -27 -7
-30 -15z"/>
<path d="M3963 2098 c-28 -14 -36 -34 -22 -61 16 -30 50 -67 63 -67 6 0 0 7
-12 16 -48 33 -64 106 -19 88 24 -9 60 -72 53 -90 -4 -11 -2 -15 8 -11 11 5
16 -7 21 -51 3 -31 10 -71 15 -88 6 -17 10 -101 10 -187 0 -86 4 -157 9 -157
14 0 18 374 5 466 -12 87 -16 96 -47 132 -22 24 -49 27 -84 10z"/>
<path d="M5395 2098 c-16 -6 -68 -14 -115 -18 l-85 -7 73 -1 72 -2 0 -57 c0
-32 -4 -63 -8 -70 -4 -7 -39 -13 -82 -16 l-75 -3 78 -2 c55 -1 89 -8 117 -22
22 -11 46 -20 55 -20 18 0 18 -4 3 -46 -9 -25 -9 -42 0 -71 6 -21 16 -77 22
-124 14 -103 20 -115 48 -100 15 8 22 8 25 -2 3 -6 6 20 6 58 2 86 23 189 50
242 11 22 40 56 65 77 25 20 46 43 46 49 0 7 -4 6 -10 -3 -7 -11 -10 -7 -10
18 0 20 4 31 10 27 21 -13 9 12 -17 38 -63 59 -183 84 -268 55z m223 -110 c4
-36 -26 -53 -56 -32 -38 26 -19 67 28 62 19 -2 26 -10 28 -30z m-165 -207 c-3
-11 -9 -18 -14 -15 -11 6 -12 58 -2 68 11 10 23 -29 16 -53z"/>
<path d="M290 2067 c-24 -12 -25 -16 -28 -136 -3 -125 3 -151 35 -151 8 0 17
9 20 20 5 19 14 20 338 20 325 0 334 -1 340 -20 8 -24 28 -26 49 -4 13 12 16
39 16 129 0 167 31 155 -399 155 -259 0 -352 -3 -371 -13z m715 -67 c0 -13
-46 -15 -339 -18 -199 -1 -344 2 -349 7 -28 28 10 31 346 29 296 -3 342 -5
342 -18z"/>
<path d="M5036 2054 c-3 -9 -6 -33 -6 -54 0 -61 7 -70 54 -69 22 1 31 4 20 6
-20 4 -22 11 -22 63 0 59 0 59 32 63 20 2 14 4 -20 5 -39 2 -53 -2 -58 -14z"/>
<path d="M336 1774 c-3 -9 -6 -19 -6 -22 0 -5 611 -8 653 -3 4 1 3 10 -3 21
-10 19 -21 20 -324 20 -277 0 -315 -2 -320 -16z"/>
<path d="M411 1688 c-5 -13 -6 -38 -4 -56 3 -18 0 -39 -7 -47 -8 -10 -9 -15
-2 -15 19 0 31 36 25 74 -3 22 -1 42 7 51 9 11 9 15 1 15 -6 0 -15 -10 -20
-22z"/>
<path d="M524 1684 c-4 -14 -1 -37 5 -50 8 -18 8 -31 1 -45 -7 -12 -7 -19 -1
-19 17 0 23 40 11 70 -9 21 -9 34 0 49 7 14 7 21 1 21 -6 0 -14 -12 -17 -26z"/>
<path d="M647 1703 c-12 -11 -7 -57 8 -77 11 -14 12 -24 4 -38 -6 -11 -8 -22
-5 -25 3 -3 11 6 17 20 10 22 9 31 -5 53 -11 16 -15 35 -12 50 7 25 4 29 -7
17z"/>
<path d="M760 1695 c-4 -31 0 -48 17 -67 10 -11 13 -26 9 -43 -4 -17 -3 -24 4
-20 15 9 12 61 -4 75 -8 6 -17 26 -19 43 -2 19 -5 24 -7 12z"/>
<path d="M870 1686 c0 -14 11 -37 25 -52 17 -18 23 -34 19 -47 -4 -13 -2 -17
5 -13 18 12 12 42 -14 70 -17 18 -24 34 -20 47 4 11 2 19 -4 19 -6 0 -11 -11
-11 -24z"/>
<path d="M1800 1565 l0 -45 -55 0 c-50 0 -56 -2 -70 -30 -8 -16 -15 -31 -15
-35 0 -3 74 -5 165 -5 91 0 165 2 165 5 0 4 -7 19 -15 35 -14 28 -20 30 -70
30 l-55 0 0 45 c0 41 -2 45 -25 45 -23 0 -25 -4 -25 -45z"/>
<path d="M2861 1124 c-80 -21 -148 -62 -212 -125 -103 -103 -151 -217 -150
-360 0 -161 68 -298 194 -396 94 -72 158 -95 284 -101 84 -3 114 -1 170 16
159 49 285 174 334 332 36 117 23 273 -31 381 -56 109 -179 212 -297 249 -78
24 -211 26 -292 4z m299 -72 c110 -43 209 -142 251 -252 31 -78 36 -194 14
-276 -16 -59 -86 -184 -104 -184 -3 0 -44 38 -91 85 l-84 84 110 3 109 3 3 43
3 42 -158 0 -159 0 -49 51 -50 50 40 -7 c99 -20 193 5 229 61 27 41 11 42 -26
2 -31 -32 -87 -57 -131 -57 -10 0 -48 8 -83 17 -50 13 -73 26 -105 59 l-42 42
44 6 c24 3 89 5 144 4 78 -2 107 1 131 14 39 21 86 76 78 90 -3 5 -15 -4 -25
-21 -33 -54 -70 -66 -194 -64 -60 1 -128 -2 -149 -8 l-39 -11 -63 63 c-35 35
-64 67 -64 71 0 15 109 80 167 99 78 26 214 21 293 -9z m-428 -216 c16 -16 28
-31 28 -33 0 -2 -18 -20 -41 -40 -33 -30 -89 -116 -89 -138 0 -19 20 1 36 36
10 23 38 62 62 86 l45 44 23 -22 24 -22 -49 -28 c-49 -28 -101 -81 -101 -102
0 -6 17 6 38 27 45 48 90 76 119 76 19 0 133 -99 133 -115 0 -3 -58 -5 -130
-5 l-130 0 0 -45 0 -45 180 0 179 0 106 -106 c58 -58 103 -110 100 -115 -12
-18 -96 -61 -147 -75 -67 -17 -168 -18 -233 0 -191 51 -325 226 -325 426 0 79
28 178 66 233 l26 39 26 -24 c15 -12 39 -36 54 -52z"/>
<path d="M2633 560 c0 -25 2 -35 4 -22 2 12 2 32 0 45 -2 12 -4 2 -4 -23z"/>
<path d="M2667 593 c-11 -10 -8 -73 3 -73 6 0 10 18 10 40 0 41 -2 45 -13 33z"/>
<path d="M3944 962 c-30 -20 -34 -55 -34 -299 0 -136 3 -258 6 -271 4 -12 19
-29 35 -38 16 -8 28 -20 26 -27 -1 -7 11 -13 29 -15 25 -2 33 1 37 17 5 20 12
21 137 21 123 0 132 -1 137 -20 7 -25 63 -29 63 -5 0 9 11 20 24 25 14 5 30
18 35 29 7 12 11 117 11 285 0 253 -1 267 -20 286 -19 19 -33 20 -247 20 -126
0 -233 -4 -239 -8z m474 -292 c2 -231 1 -256 -15 -267 -21 -16 -404 -18 -434
-3 -18 10 -19 24 -19 264 0 139 3 256 7 260 4 3 108 5 232 4 l226 -3 3 -255z"/>
<path d="M4133 856 c-45 -20 -64 -56 -70 -128 -2 -35 -9 -72 -14 -83 -5 -11
-9 -61 -7 -110 l3 -90 140 0 140 0 3 99 c2 59 -1 103 -8 110 -5 5 -10 32 -10
58 0 90 -39 143 -111 154 -19 2 -48 -2 -66 -10z m111 -58 c10 -14 16 -44 16
-80 l0 -58 -75 0 -75 0 0 60 c0 75 20 100 79 100 30 0 44 -6 55 -22z m-14
-198 c29 -29 26 -74 -6 -99 -15 -12 -32 -21 -39 -21 -7 0 -24 9 -39 21 -48 38
-22 119 39 119 14 0 34 -9 45 -20z"/>
<path d="M4164 566 c-8 -21 13 -46 32 -39 20 8 13 47 -9 51 -9 2 -20 -4 -23
-12z"/>
<path d="M326 888 c-13 -18 -16 -54 -16 -180 0 -208 -9 -198 181 -198 l141 0
-7 -32 c-10 -45 -12 -48 -43 -48 -15 -1 -40 -6 -56 -13 -26 -12 -27 -14 -11
-27 37 -30 275 -21 275 11 0 14 -45 29 -86 29 -35 0 -37 3 -48 53 l-6 27 143
0 c199 0 187 -13 187 204 0 120 -4 176 -12 184 -9 9 -94 12 -319 12 -307 0
-308 0 -323 -22z m619 -173 l0 -160 -297 -3 -298 -2 0 158 c0 87 3 162 7 165
4 4 137 6 297 5 l291 -3 0 -160z"/>
<path d="M1466 884 c-10 -25 -7 -288 4 -304 7 -12 35 -15 142 -15 l133 0 5
100 5 100 63 3 c88 4 92 -1 92 -114 l0 -94 128 0 c70 0 133 4 140 8 9 7 12 47
10 168 l-3 159 -356 3 c-319 2 -357 1 -363 -14z m172 -151 l-3 -148 -70 0 -70
0 -3 148 -3 147 76 0 76 0 -3 -147z m530 0 l-3 -148 -63 -3 c-38 -2 -69 2 -78
9 -11 9 -14 42 -14 144 0 72 3 135 7 138 3 4 39 7 80 7 l74 0 -3 -147z m-188
122 c0 -13 -23 -15 -150 -15 -127 0 -150 2 -150 15 0 13 23 15 150 15 127 0
150 -2 150 -15z"/>
<path d="M5006 874 c-14 -13 -16 -47 -16 -220 l0 -205 30 -17 c16 -9 30 -23
30 -29 0 -8 13 -13 30 -13 20 0 30 5 30 15 0 23 465 23 474 0 7 -18 56 -20 56
-2 0 6 14 20 30 29 l30 17 0 205 c0 173 -2 207 -16 220 -13 14 -58 16 -339 16
-281 0 -326 -2 -339 -16z m499 -219 l0 -190 -237 -3 -238 -2 0 195 0 195 238
-2 237 -3 0 -190z m165 130 l0 -65 -65 0 -65 0 0 65 0 65 65 0 65 0 0 -65z
m-86 -126 c-8 -14 -34 -11 -34 4 0 8 3 17 7 20 9 9 34 -13 27 -24z m76 5 c0
-8 -7 -14 -15 -14 -15 0 -21 21 -9 33 10 9 24 -2 24 -19z m-75 -64 c0 -22 -29
-18 -33 3 -3 14 1 18 15 15 10 -2 18 -10 18 -18z m75 0 c0 -11 -7 -20 -15 -20
-8 0 -15 9 -15 20 0 11 7 20 15 20 8 0 15 -9 15 -20z m-22 -62 c32 -32 -4 -87
-48 -73 -25 8 -37 50 -20 70 15 18 51 20 68 3z"/>
<path d="M5456 783 c-3 -3 -6 -62 -6 -130 0 -103 2 -123 15 -123 13 0 15 20
15 124 0 114 -6 147 -24 129z"/>
<path d="M1765 730 c-4 -11 -6 -48 -5 -83 3 -120 23 -107 -160 -107 -100 0
-160 -4 -160 -10 0 -6 137 -10 390 -10 253 0 390 4 390 10 0 6 -62 10 -165 10
l-165 0 0 105 0 105 -59 0 c-51 0 -61 -3 -66 -20z m113 -51 c3 -46 3 -47 -30
-51 -61 -7 -68 -2 -68 53 l0 50 48 -3 47 -3 3 -46z"/>
<path d="M1457 463 c-4 -3 -7 -19 -7 -35 0 -21 5 -28 19 -28 11 0 23 -4 26
-10 3 -5 21 -10 40 -10 19 0 37 5 40 10 4 6 100 10 256 10 159 0 249 -4 249
-10 0 -5 18 -10 40 -10 22 0 40 5 40 10 0 6 9 10 20 10 16 0 20 7 20 35 l0 35
-368 0 c-203 0 -372 -3 -375 -7z m49 -24 c10 -17 -13 -36 -27 -22 -12 12 -4
33 11 33 5 0 12 -5 16 -11z m474 -4 c0 -13 -23 -15 -150 -15 -127 0 -150 2
-150 15 0 13 23 15 150 15 127 0 150 -2 150 -15z m110 -5 c0 -5 -7 -10 -15
-10 -8 0 -15 5 -15 10 0 6 7 10 15 10 8 0 15 -4 15 -10z m40 0 c0 -5 -4 -10
-10 -10 -5 0 -10 5 -10 10 0 6 5 10 10 10 6 0 10 -4 10 -10z m40 0 c0 -5 -4
-10 -10 -10 -5 0 -10 5 -10 10 0 6 5 10 10 10 6 0 10 -4 10 -10z"/>
</g>
</svg>
